<?xml version="1.0" standalone="no"?>
<!DOCTYPE svg PUBLIC "-//W3C//DTD SVG 20010904//EN"
        "http://www.w3.org/TR/2001/REC-SVG-20010904/DTD/svg10.dtd">
<svg version="1.0" xmlns="http://www.w3.org/2000/svg"
     width="1079.000000pt" height="1079.000000pt" viewBox="0 0 1079.000000 1079.000000"
     preserveAspectRatio="xMidYMid meet">
    <metadata>
        Created by potrace 1.11, written by Peter Selinger 2001-2013
    </metadata>
    <g transform="translate(0.000000,1079.000000) scale(0.100000,-0.100000)"
       fill="#000000" stroke="none">
        <path d="M5385 10659 c-88 -4 -551 -10 -1030 -13 -478 -3 -919 -8 -980 -10
-60 -3 -234 -9 -385 -15 -153 -6 -319 -18 -375 -27 -55 -9 -122 -16 -150 -15
-82 1 -302 -38 -430 -76 -66 -20 -160 -56 -208 -82 -141 -73 -149 -95 -168
-496 -14 -305 -6 -2194 11 -2730 7 -209 12 -636 12 -950 -2 -552 10 -890 38
-1115 14 -117 38 -384 55 -625 44 -620 71 -935 89 -1021 12 -62 32 -238 28
-256 -4 -18 20 -231 34 -298 33 -163 54 -214 138 -340 77 -115 136 -168 291
-262 85 -52 209 -92 320 -103 11 -1 33 -6 49 -10 16 -4 43 -8 60 -9 l31 -1 7
-95 c4 -52 17 -187 27 -300 21 -214 33 -378 51 -665 12 -180 22 -288 45 -450
7 -55 16 -170 20 -255 7 -167 21 -304 35 -330 11 -21 101 -70 128 -70 31 0 74
42 106 102 65 121 161 272 265 418 77 108 137 207 197 325 48 94 121 232 163
309 l76 138 72 -77 c40 -42 123 -138 185 -213 62 -75 144 -173 183 -217 39
-44 113 -135 164 -203 95 -125 146 -168 209 -178 39 -6 53 13 68 94 10 52 12
210 7 722 -3 360 -3 677 1 703 l8 49 81 -8 c184 -17 1204 -3 1543 21 116 9
230 15 255 14 24 -1 180 1 347 6 336 9 321 5 324 78 2 52 -16 74 -70 86 -59
12 -748 6 -997 -10 -219 -14 -987 -22 -1267 -13 l-218 6 0 63 c0 109 -29 371
-55 492 -14 65 -28 146 -31 180 l-7 62 74 -19 c122 -31 384 -70 549 -81 195
-14 754 -13 880 0 52 6 147 16 210 22 63 6 120 15 125 20 6 4 53 11 105 15 52
4 100 10 105 14 10 7 184 24 365 36 115 7 415 55 524 84 254 67 437 153 719
338 98 64 295 248 377 353 229 289 337 534 401 906 41 242 42 442 3 632 -23
111 -183 504 -247 606 -56 91 -225 301 -291 362 -73 69 -247 200 -338 255
-164 100 -445 178 -771 213 l-58 7 50 54 c28 30 69 85 93 121 24 37 58 88 75
113 18 25 45 65 60 90 15 25 49 74 75 110 63 87 249 457 287 572 49 148 64
272 58 493 -8 275 -36 452 -105 645 -17 47 -40 132 -52 190 -83 405 -237 645
-601 935 -162 129 -439 304 -574 363 -101 44 -122 53 -206 91 -71 31 -248 80
-331 91 -40 5 -98 14 -128 20 -113 22 -522 32 -785 19z m899 -639 c86 -29 123
-54 210 -144 65 -66 87 -98 124 -176 24 -52 46 -113 47 -135 2 -22 9 -53 15
-70 17 -44 14 -177 -5 -238 -20 -60 -88 -137 -150 -169 -22 -11 -85 -30 -139
-42 -55 -11 -101 -26 -103 -32 -5 -14 84 -66 142 -84 68 -21 131 -57 149 -85
38 -58 161 -177 207 -200 27 -13 49 -20 49 -16 0 5 -9 29 -20 53 -38 87 -27
195 34 323 48 101 120 179 236 257 178 119 277 127 382 31 26 -24 52 -43 58
-43 17 0 189 -239 220 -305 43 -95 73 -216 84 -345 9 -107 -31 -129 -153 -83
-70 26 -114 27 -119 2 -1 -9 15 -38 38 -65 107 -129 105 -395 -3 -453 -48 -26
-52 -54 -52 -361 0 -455 -28 -566 -177 -712 -32 -32 -68 -58 -79 -58 -11 0
-30 -6 -42 -14 -12 -7 -49 -19 -82 -26 -33 -7 -66 -17 -72 -22 -23 -19 -70
-112 -82 -163 -7 -27 -23 -67 -37 -87 -13 -21 -24 -42 -24 -47 0 -6 -24 -28
-52 -50 -42 -31 -67 -41 -117 -49 -80 -12 -102 -7 -331 65 -115 37 -359 25
-525 -25 l-90 -27 60 -7 c33 -4 85 -9 116 -12 114 -11 209 -36 292 -75 88 -42
117 -68 117 -109 0 -33 -26 -80 -49 -87 -18 -6 -102 -119 -117 -158 -6 -16 53
-92 133 -172 l32 -33 43 15 c46 16 146 104 213 188 84 106 159 159 259 185 91
23 145 19 266 -20 218 -71 387 -83 535 -40 101 29 163 29 219 0 48 -24 102
-92 112 -140 3 -14 11 -41 19 -60 7 -19 19 -71 26 -115 7 -44 16 -105 21 -135
20 -122 21 -207 3 -259 -28 -85 -106 -138 -232 -160 -40 -7 -75 -16 -78 -21
-3 -4 17 -26 43 -49 108 -96 98 -78 106 -198 11 -161 22 -190 47 -115 27 84
175 310 240 368 119 105 264 91 293 -29 3 -15 1 -78 -6 -140 -17 -157 -14
-190 21 -295 17 -51 31 -104 31 -117 0 -54 -87 -241 -129 -279 -26 -24 -55
-14 -102 36 -22 24 -45 38 -55 36 -16 -3 -18 -17 -18 -138 -1 -148 -6 -164
-62 -217 -25 -24 -34 -40 -34 -65 0 -42 -35 -168 -59 -217 -50 -97 -256 -332
-365 -415 -82 -63 -194 -118 -286 -142 -85 -22 -197 -13 -305 22 -100 32 -154
29 -315 -21 -143 -44 -255 -54 -353 -31 -90 21 -139 47 -217 115 -67 60 -128
97 -315 196 -130 68 -217 128 -268 184 -33 36 -37 46 -36 93 1 52 22 116 43
130 43 29 -191 89 -312 80 -81 -5 -99 3 -213 95 -138 111 -320 196 -352 164
-15 -15 12 -39 98 -83 110 -56 189 -116 285 -214 52 -54 111 -115 131 -135 20
-20 84 -64 142 -99 145 -86 174 -112 190 -168 16 -54 9 -77 -30 -106 -35 -26
-105 -26 -141 1 -43 31 -69 43 -116 52 -52 10 -66 1 -66 -41 0 -37 -24 -84
-50 -98 -16 -8 -38 -3 -106 25 -60 25 -126 42 -213 56 -281 44 -435 96 -486
164 -13 16 -39 64 -58 105 -20 44 -47 87 -66 103 -18 15 -100 61 -183 102
-315 157 -364 211 -633 711 -78 145 -127 215 -141 201 -4 -4 -2 -22 4 -40 18
-51 52 -246 52 -303 0 -60 -17 -89 -48 -80 -11 4 -54 50 -94 104 -114 150
-168 204 -242 240 -36 18 -72 32 -80 32 -8 0 -17 4 -20 9 -3 4 -19 11 -36 15
-76 15 -163 71 -255 163 l-91 93 -43 132 c-24 73 -49 149 -56 168 -7 19 -16
61 -19 92 -8 63 1 89 43 126 l26 23 -70 -4 c-65 -4 -144 -29 -220 -70 -11 -5
-34 -13 -51 -17 -27 -6 -35 -4 -51 19 -27 35 -34 89 -22 163 14 88 34 124 108
198 119 118 336 203 561 219 117 8 147 20 226 87 28 23 77 58 110 77 32 20 70
47 84 62 21 22 22 28 10 35 -20 13 -43 5 -119 -44 -104 -66 -172 -95 -251
-104 -116 -14 -184 5 -254 72 -99 93 -113 266 -41 511 120 411 222 618 401
815 42 47 88 101 103 120 60 80 233 279 288 331 93 89 192 147 277 163 53 10
140 -25 183 -73 18 -20 33 -41 33 -46 0 -6 13 -18 29 -28 32 -19 71 -117 71
-183 0 -45 10 -66 27 -56 6 4 23 56 38 115 24 101 40 144 82 222 21 40 53 75
69 75 7 0 32 33 56 73 38 65 43 79 43 137 0 103 -20 90 -54 -35 -12 -45 -67
-133 -93 -149 -14 -8 -24 -4 -51 22 -18 17 -40 32 -49 32 -48 0 -128 106 -167
223 -16 46 -45 114 -66 152 -20 39 -39 83 -40 100 -4 39 31 112 57 120 11 4
25 19 31 35 7 15 36 46 65 69 29 23 58 54 65 68 14 31 142 133 168 133 10 0
33 9 51 20 18 11 40 20 49 20 9 0 29 7 46 15 16 8 65 20 109 26 43 6 126 19
184 29 58 10 145 24 193 30 l88 12 40 -28 c45 -31 59 -52 59 -86 0 -24 88
-150 116 -166 19 -10 159 18 192 39 28 18 29 59 1 119 -12 25 -31 74 -44 110
-28 81 -22 146 17 188 14 15 42 62 62 104 66 138 166 202 378 243 186 36 229
47 278 68 121 53 239 62 344 27z m-3538 -6596 c21 -5 21 -11 20 -167 -1 -145
24 -695 41 -901 6 -74 5 -78 -13 -73 -30 9 -98 21 -106 19 -6 -1 -122 21 -163
32 -26 7 -68 28 -107 53 -24 15 -54 33 -67 41 -101 54 -224 194 -286 326 -24
52 -27 67 -22 125 7 82 34 166 94 290 78 161 164 230 313 251 41 6 76 13 79
16 6 7 182 -4 217 -12z"/>
        <path d="M5493 8803 c-126 -141 -153 -191 -193 -353 -28 -113 -57 -199 -69
-210 -4 -3 -17 -22 -31 -43 -14 -21 -46 -53 -71 -72 -41 -29 -50 -43 -78 -120
-40 -112 -50 -151 -60 -257 -9 -86 4 -186 23 -181 5 1 25 39 45 85 34 75 51
106 108 188 45 65 69 85 136 114 82 36 108 35 220 -8 75 -29 135 -34 143 -12
8 20 -16 61 -73 128 -155 184 -168 207 -168 323 0 88 1 92 48 184 26 52 47
107 47 125 0 17 14 60 30 94 55 117 39 121 -57 15z"/>
        <path d="M6647 8093 c-3 -5 -8 -27 -12 -51 -8 -47 -26 -62 -76 -62 -31 0 -96
32 -148 72 -25 19 -56 24 -65 10 -3 -5 1 -26 7 -48 28 -88 62 -127 157 -174
57 -29 211 -182 240 -240 21 -40 22 -53 16 -135 -3 -49 -9 -102 -12 -117 -5
-21 -2 -29 11 -35 24 -8 50 24 105 131 41 81 42 84 36 157 -17 213 -24 269
-44 363 l-17 79 -60 29 c-56 26 -128 37 -138 21z"/>
        <path d="M5341 6812 c-97 -56 -143 -102 -163 -159 -28 -80 -58 -115 -112 -136
-33 -12 -60 -15 -80 -11 -45 10 -63 13 -140 19 -75 7 -94 -2 -122 -57 -33 -63
-2 -124 67 -133 117 -16 248 -16 308 0 75 19 172 35 261 42 36 3 70 9 75 13 6
5 27 11 48 14 20 3 52 8 71 11 l35 6 -44 44 c-24 24 -47 56 -50 72 -4 15 -15
48 -25 73 -19 43 -36 119 -44 188 -6 53 -16 55 -85 14z"/>
        <path d="M3300 5831 c0 -6 7 -14 15 -17 8 -4 31 -36 50 -73 29 -53 45 -72 86
-96 28 -16 75 -58 105 -91 48 -56 103 -94 134 -94 23 0 -3 45 -66 115 -34 38
-82 99 -106 134 -53 79 -110 121 -172 128 -31 4 -46 2 -46 -6z"/>
        <path d="M6870 5055 c-5 -13 -16 -50 -25 -82 -26 -93 -37 -115 -79 -167 -107
-127 -235 -160 -431 -109 -33 8 -156 62 -273 120 -205 101 -215 105 -260 98
-84 -13 -162 -71 -162 -122 0 -10 -6 -27 -14 -38 -7 -11 -16 -46 -20 -77 -7
-68 -3 -70 71 -36 41 19 66 22 173 23 l125 0 132 -73 c171 -95 216 -132 312
-256 90 -116 148 -172 188 -182 40 -10 97 25 101 62 2 16 8 34 13 40 6 8 2 31
-12 65 -25 64 -22 123 10 167 11 17 59 55 105 86 121 82 134 109 137 291 3
115 0 146 -14 171 -26 49 -62 58 -77 19z"/>
        <path d="M3996 4671 c-15 -32 -17 -53 -11 -116 15 -153 129 -324 278 -413 76
-46 255 -107 352 -122 44 -6 95 -15 113 -20 17 -5 32 -6 32 -4 0 10 -118 55
-208 79 -116 31 -208 72 -279 125 -39 30 -60 57 -87 111 -20 39 -36 80 -36 91
0 45 -112 308 -131 308 -3 0 -14 -17 -23 -39z"/>
        <path d="M7571 4269 c-12 -19 -21 -40 -21 -48 0 -7 -12 -40 -26 -72 -23 -51
-31 -60 -68 -72 -29 -10 -42 -20 -44 -35 -4 -25 44 -125 71 -149 16 -15 19
-15 40 5 33 31 46 28 100 -20 38 -35 48 -52 56 -91 20 -110 -50 -243 -168
-319 -49 -30 -40 -38 12 -12 130 68 227 225 227 369 0 35 -7 113 -15 172 -17
126 -23 186 -24 229 -1 36 -33 62 -86 71 -30 5 -36 2 -54 -28z"/>
    </g>
</svg>
